# xmcd CD database file
# 
# Track frame offsets:
# 150
# 13270
# 29205
# 46752
# 65390
# 83577
# 96927
# 109302
# 125110
# 143262
# 159745
# 176602
# 190907
# 208637
# 224922
# 240780
# 257967
# 272762
# 284890
# 299672
# 
# Disc length: 4164 seconds
#
# 
# Revision: 0
# Processed by: cddbd v1.4b41PL1 Copyright (c) Steve Scherf et al.
# Submitted via: SuperSonic v3.0
# 
DISCID=40104214
DTITLE=Various, Country - I Love Country
DYEAR=1900
DGENRE=
TTITLE0=There's No Stopping Your Heart
TTITLE1=Lookin' For Love
TTITLE2=Big Wheels In The Moonlight
TTITLE3=The Sweetest Thing (I've Ever None)
TTITLE4=Don't Go To Strangers
TTITLE5=Slow Hand
TTITLE6=Strong Enough To Bend
TTITLE7=Are You Happy Baby?
TTITLE8=I Can't Win For Losin' You
TTITLE9=It Ain't Easy Bein' Easy
TTITLE10=Touch Me When You're Dancing
TTITLE11=Woke Up In Love
TTITLE12=You and I
TTITLE13=Sweet Country Music
TTITLE14=You're The Best Break This Old Heart Ever Had
TTITLE15=A Real Cowboy
TTITLE16=If You Ever Change Your Mind
TTITLE17=Take Me In Your Arms And Hold Me
TTITLE18=Love Someone Like Me
TTITLE19=Morning Comes To Early
EXTD=
EXTT0=
EXTT1=
EXTT2=
EXTT3=
EXTT4=
EXTT5=
EXTT6=
EXTT7=
EXTT8=
EXTT9=
EXTT10=
EXTT11=
EXTT12=
EXTT13=
EXTT14=
EXTT15=
EXTT16=
EXTT17=
EXTT18=
EXTT19=
PLAYORDER=
